<mxfile host="app.diagrams.net" modified="2023-11-13T14:29:17.765Z" agent="Mozilla/5.0 (Windows NT 10.0; Win64; x64) AppleWebKit/537.36 (KHTML, like Gecko) Chrome/119.0.0.0 Safari/537.36" etag="V5F2dfGweAUyfqcnNkU2" version="21.2.3" type="github">
  <diagram id="C5RBs43oDa-KdzZeNtuy" name="Page-1">
    <mxGraphModel dx="1147" dy="1787" grid="1" gridSize="10" guides="1" tooltips="1" connect="1" arrows="1" fold="1" page="1" pageScale="1" pageWidth="827" pageHeight="1169" math="0" shadow="0">
      <root>
        <mxCell id="WIyWlLk6GJQsqaUBKTNV-0" />
        <mxCell id="WIyWlLk6GJQsqaUBKTNV-1" parent="WIyWlLk6GJQsqaUBKTNV-0" />
        <mxCell id="dOjnQ6bzSZBaQjQhCeTP-21" value="FeedFragment" style="swimlane;fontStyle=1;align=center;verticalAlign=top;childLayout=stackLayout;horizontal=1;startSize=26;horizontalStack=0;resizeParent=1;resizeParentMax=0;resizeLast=0;collapsible=1;marginBottom=0;whiteSpace=wrap;html=1;" vertex="1" parent="WIyWlLk6GJQsqaUBKTNV-1">
          <mxGeometry x="20" y="90" width="190" height="86" as="geometry" />
        </mxCell>
        <mxCell id="dOjnQ6bzSZBaQjQhCeTP-22" value="- viewmodel: FeedViewModel" style="text;strokeColor=none;fillColor=none;align=left;verticalAlign=top;spacingLeft=4;spacingRight=4;overflow=hidden;rotatable=0;points=[[0,0.5],[1,0.5]];portConstraint=eastwest;whiteSpace=wrap;html=1;" vertex="1" parent="dOjnQ6bzSZBaQjQhCeTP-21">
          <mxGeometry y="26" width="190" height="26" as="geometry" />
        </mxCell>
        <mxCell id="dOjnQ6bzSZBaQjQhCeTP-23" value="" style="line;strokeWidth=1;fillColor=none;align=left;verticalAlign=middle;spacingTop=-1;spacingLeft=3;spacingRight=3;rotatable=0;labelPosition=right;points=[];portConstraint=eastwest;strokeColor=inherit;" vertex="1" parent="dOjnQ6bzSZBaQjQhCeTP-21">
          <mxGeometry y="52" width="190" height="8" as="geometry" />
        </mxCell>
        <mxCell id="dOjnQ6bzSZBaQjQhCeTP-24" value="+ method(type): type" style="text;strokeColor=none;fillColor=none;align=left;verticalAlign=top;spacingLeft=4;spacingRight=4;overflow=hidden;rotatable=0;points=[[0,0.5],[1,0.5]];portConstraint=eastwest;whiteSpace=wrap;html=1;" vertex="1" parent="dOjnQ6bzSZBaQjQhCeTP-21">
          <mxGeometry y="60" width="190" height="26" as="geometry" />
        </mxCell>
        <mxCell id="dOjnQ6bzSZBaQjQhCeTP-25" value="DetailFragment" style="swimlane;fontStyle=1;align=center;verticalAlign=top;childLayout=stackLayout;horizontal=1;startSize=26;horizontalStack=0;resizeParent=1;resizeParentMax=0;resizeLast=0;collapsible=1;marginBottom=0;whiteSpace=wrap;html=1;" vertex="1" parent="WIyWlLk6GJQsqaUBKTNV-1">
          <mxGeometry x="40" y="420" width="160" height="86" as="geometry" />
        </mxCell>
        <mxCell id="dOjnQ6bzSZBaQjQhCeTP-26" value="+ field: type" style="text;strokeColor=none;fillColor=none;align=left;verticalAlign=top;spacingLeft=4;spacingRight=4;overflow=hidden;rotatable=0;points=[[0,0.5],[1,0.5]];portConstraint=eastwest;whiteSpace=wrap;html=1;" vertex="1" parent="dOjnQ6bzSZBaQjQhCeTP-25">
          <mxGeometry y="26" width="160" height="26" as="geometry" />
        </mxCell>
        <mxCell id="dOjnQ6bzSZBaQjQhCeTP-27" value="" style="line;strokeWidth=1;fillColor=none;align=left;verticalAlign=middle;spacingTop=-1;spacingLeft=3;spacingRight=3;rotatable=0;labelPosition=right;points=[];portConstraint=eastwest;strokeColor=inherit;" vertex="1" parent="dOjnQ6bzSZBaQjQhCeTP-25">
          <mxGeometry y="52" width="160" height="8" as="geometry" />
        </mxCell>
        <mxCell id="dOjnQ6bzSZBaQjQhCeTP-28" value="+ method(type): type" style="text;strokeColor=none;fillColor=none;align=left;verticalAlign=top;spacingLeft=4;spacingRight=4;overflow=hidden;rotatable=0;points=[[0,0.5],[1,0.5]];portConstraint=eastwest;whiteSpace=wrap;html=1;" vertex="1" parent="dOjnQ6bzSZBaQjQhCeTP-25">
          <mxGeometry y="60" width="160" height="26" as="geometry" />
        </mxCell>
        <mxCell id="dOjnQ6bzSZBaQjQhCeTP-29" value="FeedViewModel" style="swimlane;fontStyle=1;align=center;verticalAlign=top;childLayout=stackLayout;horizontal=1;startSize=26;horizontalStack=0;resizeParent=1;resizeParentMax=0;resizeLast=0;collapsible=1;marginBottom=0;whiteSpace=wrap;html=1;" vertex="1" parent="WIyWlLk6GJQsqaUBKTNV-1">
          <mxGeometry x="300" y="82" width="190" height="104" as="geometry" />
        </mxCell>
        <mxCell id="dOjnQ6bzSZBaQjQhCeTP-30" value="+ input: IFeedViewModelInput&lt;br&gt;+ output: IFeedViewModelOutput" style="text;strokeColor=none;fillColor=none;align=left;verticalAlign=top;spacingLeft=4;spacingRight=4;overflow=hidden;rotatable=0;points=[[0,0.5],[1,0.5]];portConstraint=eastwest;whiteSpace=wrap;html=1;" vertex="1" parent="dOjnQ6bzSZBaQjQhCeTP-29">
          <mxGeometry y="26" width="190" height="44" as="geometry" />
        </mxCell>
        <mxCell id="dOjnQ6bzSZBaQjQhCeTP-31" value="" style="line;strokeWidth=1;fillColor=none;align=left;verticalAlign=middle;spacingTop=-1;spacingLeft=3;spacingRight=3;rotatable=0;labelPosition=right;points=[];portConstraint=eastwest;strokeColor=inherit;" vertex="1" parent="dOjnQ6bzSZBaQjQhCeTP-29">
          <mxGeometry y="70" width="190" height="8" as="geometry" />
        </mxCell>
        <mxCell id="dOjnQ6bzSZBaQjQhCeTP-32" value="+ method(type): type" style="text;strokeColor=none;fillColor=none;align=left;verticalAlign=top;spacingLeft=4;spacingRight=4;overflow=hidden;rotatable=0;points=[[0,0.5],[1,0.5]];portConstraint=eastwest;whiteSpace=wrap;html=1;" vertex="1" parent="dOjnQ6bzSZBaQjQhCeTP-29">
          <mxGeometry y="78" width="190" height="26" as="geometry" />
        </mxCell>
        <mxCell id="dOjnQ6bzSZBaQjQhCeTP-34" value="«interface»&lt;br&gt;&lt;b&gt;IGetFeedCategoryUseCase&lt;/b&gt;" style="html=1;whiteSpace=wrap;" vertex="1" parent="WIyWlLk6GJQsqaUBKTNV-1">
          <mxGeometry x="600" y="100" width="180" height="50" as="geometry" />
        </mxCell>
        <mxCell id="dOjnQ6bzSZBaQjQhCeTP-37" value="Extends" style="endArrow=block;endSize=16;endFill=0;html=1;rounded=0;exitX=0.5;exitY=0;exitDx=0;exitDy=0;entryX=0.512;entryY=1.083;entryDx=0;entryDy=0;entryPerimeter=0;" edge="1" parent="WIyWlLk6GJQsqaUBKTNV-1" source="dOjnQ6bzSZBaQjQhCeTP-29" target="dOjnQ6bzSZBaQjQhCeTP-51">
          <mxGeometry width="160" relative="1" as="geometry">
            <mxPoint x="290" y="300" as="sourcePoint" />
            <mxPoint x="290" y="-19.999999999999773" as="targetPoint" />
          </mxGeometry>
        </mxCell>
        <mxCell id="dOjnQ6bzSZBaQjQhCeTP-38" value="Extends" style="endArrow=block;endSize=16;endFill=0;html=1;rounded=0;exitX=0.5;exitY=0;exitDx=0;exitDy=0;entryX=0.5;entryY=1.013;entryDx=0;entryDy=0;entryPerimeter=0;" edge="1" parent="WIyWlLk6GJQsqaUBKTNV-1" source="dOjnQ6bzSZBaQjQhCeTP-29" target="dOjnQ6bzSZBaQjQhCeTP-58">
          <mxGeometry width="160" relative="1" as="geometry">
            <mxPoint x="380" y="160" as="sourcePoint" />
            <mxPoint x="513.3600000000001" y="-26.15599999999995" as="targetPoint" />
          </mxGeometry>
        </mxCell>
        <mxCell id="dOjnQ6bzSZBaQjQhCeTP-39" value="Use" style="endArrow=open;endSize=12;dashed=1;html=1;rounded=0;exitX=1.009;exitY=0.13;exitDx=0;exitDy=0;exitPerimeter=0;entryX=0;entryY=0.5;entryDx=0;entryDy=0;" edge="1" parent="WIyWlLk6GJQsqaUBKTNV-1" source="dOjnQ6bzSZBaQjQhCeTP-29" target="dOjnQ6bzSZBaQjQhCeTP-34">
          <mxGeometry width="160" relative="1" as="geometry">
            <mxPoint x="480" y="189" as="sourcePoint" />
            <mxPoint x="540" y="306" as="targetPoint" />
          </mxGeometry>
        </mxCell>
        <mxCell id="dOjnQ6bzSZBaQjQhCeTP-42" value="1" style="endArrow=open;html=1;endSize=12;startArrow=diamondThin;startSize=14;startFill=0;edgeStyle=orthogonalEdgeStyle;align=left;verticalAlign=bottom;rounded=0;exitX=1;exitY=0.5;exitDx=0;exitDy=0;entryX=-0.004;entryY=0.122;entryDx=0;entryDy=0;entryPerimeter=0;" edge="1" parent="WIyWlLk6GJQsqaUBKTNV-1" source="dOjnQ6bzSZBaQjQhCeTP-22" target="dOjnQ6bzSZBaQjQhCeTP-29">
          <mxGeometry x="-1" y="3" relative="1" as="geometry">
            <mxPoint x="250" y="280" as="sourcePoint" />
            <mxPoint x="320" y="128" as="targetPoint" />
          </mxGeometry>
        </mxCell>
        <mxCell id="dOjnQ6bzSZBaQjQhCeTP-44" value="GetFeedCategoryUseCase" style="swimlane;fontStyle=1;align=center;verticalAlign=top;childLayout=stackLayout;horizontal=1;startSize=26;horizontalStack=0;resizeParent=1;resizeParentMax=0;resizeLast=0;collapsible=1;marginBottom=0;whiteSpace=wrap;html=1;" vertex="1" parent="WIyWlLk6GJQsqaUBKTNV-1">
          <mxGeometry x="480" y="210" width="420" height="50" as="geometry" />
        </mxCell>
        <mxCell id="dOjnQ6bzSZBaQjQhCeTP-45" value="+ invoke(sortOrder: SortOrder?): EntityWrapper&amp;lt;List&amp;lt;CategoryEntity&amp;gt;&amp;gt;" style="text;strokeColor=none;fillColor=none;align=left;verticalAlign=top;spacingLeft=4;spacingRight=4;overflow=hidden;rotatable=0;points=[[0,0.5],[1,0.5]];portConstraint=eastwest;whiteSpace=wrap;html=1;" vertex="1" parent="dOjnQ6bzSZBaQjQhCeTP-44">
          <mxGeometry y="26" width="420" height="24" as="geometry" />
        </mxCell>
        <mxCell id="dOjnQ6bzSZBaQjQhCeTP-48" value="«interface»&lt;br style=&quot;border-color: var(--border-color);&quot;&gt;&lt;b style=&quot;border-color: var(--border-color);&quot;&gt;IFeedViewModelInput&lt;/b&gt;" style="swimlane;fontStyle=0;childLayout=stackLayout;horizontal=1;startSize=34;fillColor=none;horizontalStack=0;resizeParent=1;resizeParentMax=0;resizeLast=0;collapsible=1;marginBottom=0;whiteSpace=wrap;html=1;" vertex="1" parent="WIyWlLk6GJQsqaUBKTNV-1">
          <mxGeometry x="130" y="-104" width="230" height="112" as="geometry" />
        </mxCell>
        <mxCell id="dOjnQ6bzSZBaQjQhCeTP-49" value="+ openDetail(movieName: String)" style="text;strokeColor=none;fillColor=none;align=left;verticalAlign=top;spacingLeft=4;spacingRight=4;overflow=hidden;rotatable=0;points=[[0,0.5],[1,0.5]];portConstraint=eastwest;whiteSpace=wrap;html=1;" vertex="1" parent="dOjnQ6bzSZBaQjQhCeTP-48">
          <mxGeometry y="34" width="230" height="26" as="geometry" />
        </mxCell>
        <mxCell id="dOjnQ6bzSZBaQjQhCeTP-50" value="+ openInfoDialog()" style="text;strokeColor=none;fillColor=none;align=left;verticalAlign=top;spacingLeft=4;spacingRight=4;overflow=hidden;rotatable=0;points=[[0,0.5],[1,0.5]];portConstraint=eastwest;whiteSpace=wrap;html=1;" vertex="1" parent="dOjnQ6bzSZBaQjQhCeTP-48">
          <mxGeometry y="60" width="230" height="26" as="geometry" />
        </mxCell>
        <mxCell id="dOjnQ6bzSZBaQjQhCeTP-51" value="+ refreshFeed()" style="text;strokeColor=none;fillColor=none;align=left;verticalAlign=top;spacingLeft=4;spacingRight=4;overflow=hidden;rotatable=0;points=[[0,0.5],[1,0.5]];portConstraint=eastwest;whiteSpace=wrap;html=1;" vertex="1" parent="dOjnQ6bzSZBaQjQhCeTP-48">
          <mxGeometry y="86" width="230" height="26" as="geometry" />
        </mxCell>
        <mxCell id="dOjnQ6bzSZBaQjQhCeTP-56" value="«interface»&lt;br style=&quot;border-color: var(--border-color);&quot;&gt;&lt;b style=&quot;border-color: var(--border-color);&quot;&gt;IFeedViewModelOutput&lt;/b&gt;" style="swimlane;fontStyle=0;childLayout=stackLayout;horizontal=1;startSize=34;fillColor=none;horizontalStack=0;resizeParent=1;resizeParentMax=0;resizeLast=0;collapsible=1;marginBottom=0;whiteSpace=wrap;html=1;" vertex="1" parent="WIyWlLk6GJQsqaUBKTNV-1">
          <mxGeometry x="430" y="-110" width="260" height="86" as="geometry" />
        </mxCell>
        <mxCell id="dOjnQ6bzSZBaQjQhCeTP-57" value="+ feedState: StateFlow&amp;lt;FeedState&amp;gt;" style="text;strokeColor=none;fillColor=none;align=left;verticalAlign=top;spacingLeft=4;spacingRight=4;overflow=hidden;rotatable=0;points=[[0,0.5],[1,0.5]];portConstraint=eastwest;whiteSpace=wrap;html=1;" vertex="1" parent="dOjnQ6bzSZBaQjQhCeTP-56">
          <mxGeometry y="34" width="260" height="26" as="geometry" />
        </mxCell>
        <mxCell id="dOjnQ6bzSZBaQjQhCeTP-58" value="+ feedUiEffect: SharedFlow&amp;lt;FeedUiEffect&amp;gt;" style="text;strokeColor=none;fillColor=none;align=left;verticalAlign=top;spacingLeft=4;spacingRight=4;overflow=hidden;rotatable=0;points=[[0,0.5],[1,0.5]];portConstraint=eastwest;whiteSpace=wrap;html=1;" vertex="1" parent="dOjnQ6bzSZBaQjQhCeTP-56">
          <mxGeometry y="60" width="260" height="26" as="geometry" />
        </mxCell>
        <mxCell id="dOjnQ6bzSZBaQjQhCeTP-62" value="&amp;lt;&amp;lt;sealed&amp;gt;&amp;gt;&lt;br&gt;FeedUiEffect" style="swimlane;fontStyle=0;childLayout=stackLayout;horizontal=1;startSize=30;fillColor=none;horizontalStack=0;resizeParent=1;resizeParentMax=0;resizeLast=0;collapsible=1;marginBottom=0;whiteSpace=wrap;html=1;" vertex="1" parent="WIyWlLk6GJQsqaUBKTNV-1">
          <mxGeometry x="390" y="-300" width="290" height="82" as="geometry" />
        </mxCell>
        <mxCell id="dOjnQ6bzSZBaQjQhCeTP-63" value="OpenMovieDetail(movieName: String) [data class]" style="text;strokeColor=none;fillColor=none;align=left;verticalAlign=top;spacingLeft=4;spacingRight=4;overflow=hidden;rotatable=0;points=[[0,0.5],[1,0.5]];portConstraint=eastwest;whiteSpace=wrap;html=1;" vertex="1" parent="dOjnQ6bzSZBaQjQhCeTP-62">
          <mxGeometry y="30" width="290" height="26" as="geometry" />
        </mxCell>
        <mxCell id="dOjnQ6bzSZBaQjQhCeTP-64" value="OpenInfoDialog" style="text;strokeColor=none;fillColor=none;align=left;verticalAlign=top;spacingLeft=4;spacingRight=4;overflow=hidden;rotatable=0;points=[[0,0.5],[1,0.5]];portConstraint=eastwest;whiteSpace=wrap;html=1;" vertex="1" parent="dOjnQ6bzSZBaQjQhCeTP-62">
          <mxGeometry y="56" width="290" height="26" as="geometry" />
        </mxCell>
        <mxCell id="dOjnQ6bzSZBaQjQhCeTP-66" value="1" style="endArrow=open;html=1;endSize=12;startArrow=diamondThin;startSize=14;startFill=0;edgeStyle=orthogonalEdgeStyle;align=left;verticalAlign=bottom;rounded=0;exitX=0.5;exitY=0;exitDx=0;exitDy=0;entryX=0.474;entryY=1.038;entryDx=0;entryDy=0;entryPerimeter=0;" edge="1" parent="WIyWlLk6GJQsqaUBKTNV-1" source="dOjnQ6bzSZBaQjQhCeTP-56" target="dOjnQ6bzSZBaQjQhCeTP-64">
          <mxGeometry x="-1" y="3" relative="1" as="geometry">
            <mxPoint x="530" y="-156" as="sourcePoint" />
            <mxPoint x="619" y="-190" as="targetPoint" />
          </mxGeometry>
        </mxCell>
        <mxCell id="dOjnQ6bzSZBaQjQhCeTP-67" value="&amp;lt;&amp;lt;sealed&amp;gt;&amp;gt;&lt;br&gt;FeedState" style="swimlane;fontStyle=0;childLayout=stackLayout;horizontal=1;startSize=30;fillColor=none;horizontalStack=0;resizeParent=1;resizeParentMax=0;resizeLast=0;collapsible=1;marginBottom=0;whiteSpace=wrap;html=1;" vertex="1" parent="WIyWlLk6GJQsqaUBKTNV-1">
          <mxGeometry x="90" y="-300" width="290" height="108" as="geometry" />
        </mxCell>
        <mxCell id="dOjnQ6bzSZBaQjQhCeTP-68" value="Loading" style="text;strokeColor=none;fillColor=none;align=left;verticalAlign=top;spacingLeft=4;spacingRight=4;overflow=hidden;rotatable=0;points=[[0,0.5],[1,0.5]];portConstraint=eastwest;whiteSpace=wrap;html=1;" vertex="1" parent="dOjnQ6bzSZBaQjQhCeTP-67">
          <mxGeometry y="30" width="290" height="26" as="geometry" />
        </mxCell>
        <mxCell id="dOjnQ6bzSZBaQjQhCeTP-69" value="Main(categories: List&amp;lt;CategoryEntity&amp;gt;) [class]" style="text;strokeColor=none;fillColor=none;align=left;verticalAlign=top;spacingLeft=4;spacingRight=4;overflow=hidden;rotatable=0;points=[[0,0.5],[1,0.5]];portConstraint=eastwest;whiteSpace=wrap;html=1;" vertex="1" parent="dOjnQ6bzSZBaQjQhCeTP-67">
          <mxGeometry y="56" width="290" height="26" as="geometry" />
        </mxCell>
        <mxCell id="dOjnQ6bzSZBaQjQhCeTP-70" value="Failed(reason: String)" style="text;strokeColor=none;fillColor=none;align=left;verticalAlign=top;spacingLeft=4;spacingRight=4;overflow=hidden;rotatable=0;points=[[0,0.5],[1,0.5]];portConstraint=eastwest;whiteSpace=wrap;html=1;" vertex="1" parent="dOjnQ6bzSZBaQjQhCeTP-67">
          <mxGeometry y="82" width="290" height="26" as="geometry" />
        </mxCell>
        <mxCell id="dOjnQ6bzSZBaQjQhCeTP-71" value="1" style="endArrow=open;html=1;endSize=12;startArrow=diamondThin;startSize=14;startFill=0;edgeStyle=orthogonalEdgeStyle;align=left;verticalAlign=bottom;rounded=0;exitX=0.5;exitY=0;exitDx=0;exitDy=0;entryX=0.463;entryY=0.968;entryDx=0;entryDy=0;entryPerimeter=0;" edge="1" parent="WIyWlLk6GJQsqaUBKTNV-1" source="dOjnQ6bzSZBaQjQhCeTP-56" target="dOjnQ6bzSZBaQjQhCeTP-70">
          <mxGeometry x="-1" y="3" relative="1" as="geometry">
            <mxPoint x="570" y="-100" as="sourcePoint" />
            <mxPoint x="230" y="-180" as="targetPoint" />
          </mxGeometry>
        </mxCell>
        <mxCell id="dOjnQ6bzSZBaQjQhCeTP-72" value="Extends" style="endArrow=block;endSize=16;endFill=0;html=1;rounded=0;exitX=0.5;exitY=0;exitDx=0;exitDy=0;entryX=0.5;entryY=1;entryDx=0;entryDy=0;" edge="1" parent="WIyWlLk6GJQsqaUBKTNV-1" source="dOjnQ6bzSZBaQjQhCeTP-44" target="dOjnQ6bzSZBaQjQhCeTP-34">
          <mxGeometry width="160" relative="1" as="geometry">
            <mxPoint x="405" y="92" as="sourcePoint" />
            <mxPoint x="570" y="-14" as="targetPoint" />
          </mxGeometry>
        </mxCell>
        <mxCell id="dOjnQ6bzSZBaQjQhCeTP-73" value="«interface»&lt;br style=&quot;border-color: var(--border-color);&quot;&gt;&lt;b style=&quot;border-color: var(--border-color);&quot;&gt;IMovieDataSource&lt;/b&gt;" style="swimlane;fontStyle=0;childLayout=stackLayout;horizontal=1;startSize=34;fillColor=none;horizontalStack=0;resizeParent=1;resizeParentMax=0;resizeLast=0;collapsible=1;marginBottom=0;whiteSpace=wrap;html=1;" vertex="1" parent="WIyWlLk6GJQsqaUBKTNV-1">
          <mxGeometry x="1000" y="186" width="390" height="86" as="geometry" />
        </mxCell>
        <mxCell id="dOjnQ6bzSZBaQjQhCeTP-74" value="+ getCategories(sortOrder): EntityWrapper&amp;lt;List&amp;lt;CategoryEntity&amp;gt;&amp;gt;" style="text;strokeColor=none;fillColor=none;align=left;verticalAlign=top;spacingLeft=4;spacingRight=4;overflow=hidden;rotatable=0;points=[[0,0.5],[1,0.5]];portConstraint=eastwest;whiteSpace=wrap;html=1;" vertex="1" parent="dOjnQ6bzSZBaQjQhCeTP-73">
          <mxGeometry y="34" width="390" height="26" as="geometry" />
        </mxCell>
        <mxCell id="dOjnQ6bzSZBaQjQhCeTP-75" value="+ getMovieDetail(movieName: String): MovieDetailEntity" style="text;strokeColor=none;fillColor=none;align=left;verticalAlign=top;spacingLeft=4;spacingRight=4;overflow=hidden;rotatable=0;points=[[0,0.5],[1,0.5]];portConstraint=eastwest;whiteSpace=wrap;html=1;" vertex="1" parent="dOjnQ6bzSZBaQjQhCeTP-73">
          <mxGeometry y="60" width="390" height="26" as="geometry" />
        </mxCell>
        <mxCell id="dOjnQ6bzSZBaQjQhCeTP-76" value="Use" style="endArrow=open;endSize=12;dashed=1;html=1;rounded=0;entryX=-0.004;entryY=0.389;entryDx=0;entryDy=0;entryPerimeter=0;exitX=1;exitY=0.167;exitDx=0;exitDy=0;exitPerimeter=0;" edge="1" parent="WIyWlLk6GJQsqaUBKTNV-1" source="dOjnQ6bzSZBaQjQhCeTP-44" target="dOjnQ6bzSZBaQjQhCeTP-73">
          <mxGeometry width="160" relative="1" as="geometry">
            <mxPoint x="920" y="220" as="sourcePoint" />
            <mxPoint x="888" y="289" as="targetPoint" />
          </mxGeometry>
        </mxCell>
        <mxCell id="dOjnQ6bzSZBaQjQhCeTP-77" value="SortOrder" style="swimlane;fontStyle=0;childLayout=stackLayout;horizontal=1;startSize=26;fillColor=none;horizontalStack=0;resizeParent=1;resizeParentMax=0;resizeLast=0;collapsible=1;marginBottom=0;whiteSpace=wrap;html=1;" vertex="1" parent="WIyWlLk6GJQsqaUBKTNV-1">
          <mxGeometry x="1050" y="84" width="80" height="78" as="geometry" />
        </mxCell>
        <mxCell id="dOjnQ6bzSZBaQjQhCeTP-78" value="RATING" style="text;strokeColor=none;fillColor=none;align=left;verticalAlign=top;spacingLeft=4;spacingRight=4;overflow=hidden;rotatable=0;points=[[0,0.5],[1,0.5]];portConstraint=eastwest;whiteSpace=wrap;html=1;" vertex="1" parent="dOjnQ6bzSZBaQjQhCeTP-77">
          <mxGeometry y="26" width="80" height="26" as="geometry" />
        </mxCell>
        <mxCell id="dOjnQ6bzSZBaQjQhCeTP-79" value="YEAR" style="text;strokeColor=none;fillColor=none;align=left;verticalAlign=top;spacingLeft=4;spacingRight=4;overflow=hidden;rotatable=0;points=[[0,0.5],[1,0.5]];portConstraint=eastwest;whiteSpace=wrap;html=1;" vertex="1" parent="dOjnQ6bzSZBaQjQhCeTP-77">
          <mxGeometry y="52" width="80" height="26" as="geometry" />
        </mxCell>
        <mxCell id="dOjnQ6bzSZBaQjQhCeTP-81" value="&amp;lt;&amp;lt;sealed&amp;gt;&amp;gt;&lt;br&gt;EntityWrapper&amp;lt;T&amp;gt;" style="swimlane;fontStyle=0;childLayout=stackLayout;horizontal=1;startSize=30;fillColor=none;horizontalStack=0;resizeParent=1;resizeParentMax=0;resizeLast=0;collapsible=1;marginBottom=0;whiteSpace=wrap;html=1;" vertex="1" parent="WIyWlLk6GJQsqaUBKTNV-1">
          <mxGeometry x="1143.5" y="82" width="234" height="82" as="geometry" />
        </mxCell>
        <mxCell id="dOjnQ6bzSZBaQjQhCeTP-82" value="Success&amp;lt;T&amp;gt;(entity: T) [data class]" style="text;strokeColor=none;fillColor=none;align=left;verticalAlign=top;spacingLeft=4;spacingRight=4;overflow=hidden;rotatable=0;points=[[0,0.5],[1,0.5]];portConstraint=eastwest;whiteSpace=wrap;html=1;" vertex="1" parent="dOjnQ6bzSZBaQjQhCeTP-81">
          <mxGeometry y="30" width="234" height="26" as="geometry" />
        </mxCell>
        <mxCell id="dOjnQ6bzSZBaQjQhCeTP-83" value="Fail&amp;lt;T&amp;gt;(error: Throwable) [data class]" style="text;strokeColor=none;fillColor=none;align=left;verticalAlign=top;spacingLeft=4;spacingRight=4;overflow=hidden;rotatable=0;points=[[0,0.5],[1,0.5]];portConstraint=eastwest;whiteSpace=wrap;html=1;" vertex="1" parent="dOjnQ6bzSZBaQjQhCeTP-81">
          <mxGeometry y="56" width="234" height="26" as="geometry" />
        </mxCell>
        <mxCell id="dOjnQ6bzSZBaQjQhCeTP-84" value="MovieRepository" style="swimlane;fontStyle=1;align=center;verticalAlign=top;childLayout=stackLayout;horizontal=1;startSize=26;horizontalStack=0;resizeParent=1;resizeParentMax=0;resizeLast=0;collapsible=1;marginBottom=0;whiteSpace=wrap;html=1;" vertex="1" parent="WIyWlLk6GJQsqaUBKTNV-1">
          <mxGeometry x="1072.5" y="334" width="245" height="114" as="geometry" />
        </mxCell>
        <mxCell id="dOjnQ6bzSZBaQjQhCeTP-85" value="- movieNetworkApi: IMovieAppNetworkApi&lt;br&gt;- storage: IStorage&lt;br&gt;- categoryMapper: CategoryMapper" style="text;strokeColor=none;fillColor=none;align=left;verticalAlign=top;spacingLeft=4;spacingRight=4;overflow=hidden;rotatable=0;points=[[0,0.5],[1,0.5]];portConstraint=eastwest;whiteSpace=wrap;html=1;" vertex="1" parent="dOjnQ6bzSZBaQjQhCeTP-84">
          <mxGeometry y="26" width="245" height="54" as="geometry" />
        </mxCell>
        <mxCell id="dOjnQ6bzSZBaQjQhCeTP-86" value="" style="line;strokeWidth=1;fillColor=none;align=left;verticalAlign=middle;spacingTop=-1;spacingLeft=3;spacingRight=3;rotatable=0;labelPosition=right;points=[];portConstraint=eastwest;strokeColor=inherit;" vertex="1" parent="dOjnQ6bzSZBaQjQhCeTP-84">
          <mxGeometry y="80" width="245" height="8" as="geometry" />
        </mxCell>
        <mxCell id="dOjnQ6bzSZBaQjQhCeTP-87" value="+ method(type): type" style="text;strokeColor=none;fillColor=none;align=left;verticalAlign=top;spacingLeft=4;spacingRight=4;overflow=hidden;rotatable=0;points=[[0,0.5],[1,0.5]];portConstraint=eastwest;whiteSpace=wrap;html=1;" vertex="1" parent="dOjnQ6bzSZBaQjQhCeTP-84">
          <mxGeometry y="88" width="245" height="26" as="geometry" />
        </mxCell>
        <mxCell id="dOjnQ6bzSZBaQjQhCeTP-88" value="Extends" style="endArrow=block;endSize=16;endFill=0;html=1;rounded=0;exitX=0.5;exitY=0;exitDx=0;exitDy=0;entryX=0.497;entryY=0.977;entryDx=0;entryDy=0;entryPerimeter=0;" edge="1" parent="WIyWlLk6GJQsqaUBKTNV-1" source="dOjnQ6bzSZBaQjQhCeTP-84" target="dOjnQ6bzSZBaQjQhCeTP-75">
          <mxGeometry width="160" relative="1" as="geometry">
            <mxPoint x="1170" y="340" as="sourcePoint" />
            <mxPoint x="1170" y="280" as="targetPoint" />
          </mxGeometry>
        </mxCell>
        <mxCell id="dOjnQ6bzSZBaQjQhCeTP-94" value="«interface»&lt;br style=&quot;border-color: var(--border-color);&quot;&gt;&lt;b style=&quot;border-color: var(--border-color);&quot;&gt;IMovieAppNetworkApi&lt;/b&gt;" style="swimlane;fontStyle=0;childLayout=stackLayout;horizontal=1;startSize=34;fillColor=none;horizontalStack=0;resizeParent=1;resizeParentMax=0;resizeLast=0;collapsible=1;marginBottom=0;whiteSpace=wrap;html=1;" vertex="1" parent="WIyWlLk6GJQsqaUBKTNV-1">
          <mxGeometry x="1570" y="334" width="290" height="60" as="geometry" />
        </mxCell>
        <mxCell id="dOjnQ6bzSZBaQjQhCeTP-95" value="+ getMovies(): ApiResult&amp;lt;List&amp;lt;MovieResponse&amp;gt;&amp;gt;" style="text;strokeColor=none;fillColor=none;align=left;verticalAlign=top;spacingLeft=4;spacingRight=4;overflow=hidden;rotatable=0;points=[[0,0.5],[1,0.5]];portConstraint=eastwest;whiteSpace=wrap;html=1;" vertex="1" parent="dOjnQ6bzSZBaQjQhCeTP-94">
          <mxGeometry y="34" width="290" height="26" as="geometry" />
        </mxCell>
        <mxCell id="dOjnQ6bzSZBaQjQhCeTP-97" value="Use" style="endArrow=open;endSize=12;dashed=1;html=1;rounded=0;exitX=0.999;exitY=0.123;exitDx=0;exitDy=0;exitPerimeter=0;entryX=0.002;entryY=0.144;entryDx=0;entryDy=0;entryPerimeter=0;" edge="1" parent="WIyWlLk6GJQsqaUBKTNV-1" source="dOjnQ6bzSZBaQjQhCeTP-84" target="dOjnQ6bzSZBaQjQhCeTP-94">
          <mxGeometry width="160" relative="1" as="geometry">
            <mxPoint x="1300" y="380" as="sourcePoint" />
            <mxPoint x="1460" y="380" as="targetPoint" />
          </mxGeometry>
        </mxCell>
        <mxCell id="dOjnQ6bzSZBaQjQhCeTP-98" value="MovieResponse [data class]" style="swimlane;fontStyle=0;childLayout=stackLayout;horizontal=1;startSize=26;fillColor=none;horizontalStack=0;resizeParent=1;resizeParentMax=0;resizeLast=0;collapsible=1;marginBottom=0;whiteSpace=wrap;html=1;" vertex="1" parent="WIyWlLk6GJQsqaUBKTNV-1">
          <mxGeometry x="1702.5" y="40" width="210" height="286" as="geometry" />
        </mxCell>
        <mxCell id="dOjnQ6bzSZBaQjQhCeTP-99" value="+ actors: List&amp;lt;String&amp;gt;" style="text;strokeColor=none;fillColor=none;align=left;verticalAlign=top;spacingLeft=4;spacingRight=4;overflow=hidden;rotatable=0;points=[[0,0.5],[1,0.5]];portConstraint=eastwest;whiteSpace=wrap;html=1;" vertex="1" parent="dOjnQ6bzSZBaQjQhCeTP-98">
          <mxGeometry y="26" width="210" height="26" as="geometry" />
        </mxCell>
        <mxCell id="dOjnQ6bzSZBaQjQhCeTP-100" value="+ desc: String" style="text;strokeColor=none;fillColor=none;align=left;verticalAlign=top;spacingLeft=4;spacingRight=4;overflow=hidden;rotatable=0;points=[[0,0.5],[1,0.5]];portConstraint=eastwest;whiteSpace=wrap;html=1;" vertex="1" parent="dOjnQ6bzSZBaQjQhCeTP-98">
          <mxGeometry y="52" width="210" height="26" as="geometry" />
        </mxCell>
        <mxCell id="dOjnQ6bzSZBaQjQhCeTP-101" value="+ directors: List&amp;lt;String&amp;gt;" style="text;strokeColor=none;fillColor=none;align=left;verticalAlign=top;spacingLeft=4;spacingRight=4;overflow=hidden;rotatable=0;points=[[0,0.5],[1,0.5]];portConstraint=eastwest;whiteSpace=wrap;html=1;" vertex="1" parent="dOjnQ6bzSZBaQjQhCeTP-98">
          <mxGeometry y="78" width="210" height="26" as="geometry" />
        </mxCell>
        <mxCell id="dOjnQ6bzSZBaQjQhCeTP-106" value="+ genre: List&amp;lt;String&amp;gt;" style="text;strokeColor=none;fillColor=none;align=left;verticalAlign=top;spacingLeft=4;spacingRight=4;overflow=hidden;rotatable=0;points=[[0,0.5],[1,0.5]];portConstraint=eastwest;whiteSpace=wrap;html=1;" vertex="1" parent="dOjnQ6bzSZBaQjQhCeTP-98">
          <mxGeometry y="104" width="210" height="26" as="geometry" />
        </mxCell>
        <mxCell id="dOjnQ6bzSZBaQjQhCeTP-107" value="+ imageUrl: String" style="text;strokeColor=none;fillColor=none;align=left;verticalAlign=top;spacingLeft=4;spacingRight=4;overflow=hidden;rotatable=0;points=[[0,0.5],[1,0.5]];portConstraint=eastwest;whiteSpace=wrap;html=1;" vertex="1" parent="dOjnQ6bzSZBaQjQhCeTP-98">
          <mxGeometry y="130" width="210" height="26" as="geometry" />
        </mxCell>
        <mxCell id="dOjnQ6bzSZBaQjQhCeTP-108" value="+ thumbUrl: String" style="text;strokeColor=none;fillColor=none;align=left;verticalAlign=top;spacingLeft=4;spacingRight=4;overflow=hidden;rotatable=0;points=[[0,0.5],[1,0.5]];portConstraint=eastwest;whiteSpace=wrap;html=1;" vertex="1" parent="dOjnQ6bzSZBaQjQhCeTP-98">
          <mxGeometry y="156" width="210" height="26" as="geometry" />
        </mxCell>
        <mxCell id="dOjnQ6bzSZBaQjQhCeTP-109" value="+ imdbPath: String" style="text;strokeColor=none;fillColor=none;align=left;verticalAlign=top;spacingLeft=4;spacingRight=4;overflow=hidden;rotatable=0;points=[[0,0.5],[1,0.5]];portConstraint=eastwest;whiteSpace=wrap;html=1;" vertex="1" parent="dOjnQ6bzSZBaQjQhCeTP-98">
          <mxGeometry y="182" width="210" height="26" as="geometry" />
        </mxCell>
        <mxCell id="dOjnQ6bzSZBaQjQhCeTP-110" value="+ titile: String" style="text;strokeColor=none;fillColor=none;align=left;verticalAlign=top;spacingLeft=4;spacingRight=4;overflow=hidden;rotatable=0;points=[[0,0.5],[1,0.5]];portConstraint=eastwest;whiteSpace=wrap;html=1;" vertex="1" parent="dOjnQ6bzSZBaQjQhCeTP-98">
          <mxGeometry y="208" width="210" height="26" as="geometry" />
        </mxCell>
        <mxCell id="dOjnQ6bzSZBaQjQhCeTP-111" value="+ rating: Float" style="text;strokeColor=none;fillColor=none;align=left;verticalAlign=top;spacingLeft=4;spacingRight=4;overflow=hidden;rotatable=0;points=[[0,0.5],[1,0.5]];portConstraint=eastwest;whiteSpace=wrap;html=1;" vertex="1" parent="dOjnQ6bzSZBaQjQhCeTP-98">
          <mxGeometry y="234" width="210" height="26" as="geometry" />
        </mxCell>
        <mxCell id="dOjnQ6bzSZBaQjQhCeTP-112" value="+ year: Int?" style="text;strokeColor=none;fillColor=none;align=left;verticalAlign=top;spacingLeft=4;spacingRight=4;overflow=hidden;rotatable=0;points=[[0,0.5],[1,0.5]];portConstraint=eastwest;whiteSpace=wrap;html=1;" vertex="1" parent="dOjnQ6bzSZBaQjQhCeTP-98">
          <mxGeometry y="260" width="210" height="26" as="geometry" />
        </mxCell>
        <mxCell id="dOjnQ6bzSZBaQjQhCeTP-113" value="ApiResult&amp;lt;T&amp;gt;" style="swimlane;fontStyle=0;childLayout=stackLayout;horizontal=1;startSize=26;fillColor=none;horizontalStack=0;resizeParent=1;resizeParentMax=0;resizeLast=0;collapsible=1;marginBottom=0;whiteSpace=wrap;html=1;" vertex="1" parent="WIyWlLk6GJQsqaUBKTNV-1">
          <mxGeometry x="1430" y="210" width="262.5" height="104" as="geometry" />
        </mxCell>
        <mxCell id="dOjnQ6bzSZBaQjQhCeTP-114" value="+ response: ApiResponse&amp;lt;T&amp;gt;" style="text;strokeColor=none;fillColor=none;align=left;verticalAlign=top;spacingLeft=4;spacingRight=4;overflow=hidden;rotatable=0;points=[[0,0.5],[1,0.5]];portConstraint=eastwest;whiteSpace=wrap;html=1;" vertex="1" parent="dOjnQ6bzSZBaQjQhCeTP-113">
          <mxGeometry y="26" width="262.5" height="26" as="geometry" />
        </mxCell>
        <mxCell id="dOjnQ6bzSZBaQjQhCeTP-115" value="+ headers: Map&amp;lt;String, String&amp;gt; = emptyMap()" style="text;strokeColor=none;fillColor=none;align=left;verticalAlign=top;spacingLeft=4;spacingRight=4;overflow=hidden;rotatable=0;points=[[0,0.5],[1,0.5]];portConstraint=eastwest;whiteSpace=wrap;html=1;" vertex="1" parent="dOjnQ6bzSZBaQjQhCeTP-113">
          <mxGeometry y="52" width="262.5" height="26" as="geometry" />
        </mxCell>
        <mxCell id="dOjnQ6bzSZBaQjQhCeTP-116" value="+ code: Int = -1" style="text;strokeColor=none;fillColor=none;align=left;verticalAlign=top;spacingLeft=4;spacingRight=4;overflow=hidden;rotatable=0;points=[[0,0.5],[1,0.5]];portConstraint=eastwest;whiteSpace=wrap;html=1;" vertex="1" parent="dOjnQ6bzSZBaQjQhCeTP-113">
          <mxGeometry y="78" width="262.5" height="26" as="geometry" />
        </mxCell>
        <mxCell id="dOjnQ6bzSZBaQjQhCeTP-124" value="&amp;lt;&amp;lt;sealed&amp;gt;&amp;gt;&lt;br&gt;ApiResponse&amp;lt;out T&amp;gt;" style="swimlane;fontStyle=0;childLayout=stackLayout;horizontal=1;startSize=30;fillColor=none;horizontalStack=0;resizeParent=1;resizeParentMax=0;resizeLast=0;collapsible=1;marginBottom=0;whiteSpace=wrap;html=1;" vertex="1" parent="WIyWlLk6GJQsqaUBKTNV-1">
          <mxGeometry x="1930" y="210" width="262.5" height="82" as="geometry" />
        </mxCell>
        <mxCell id="dOjnQ6bzSZBaQjQhCeTP-125" value="Success&amp;lt;T&amp;gt;(data: T)" style="text;strokeColor=none;fillColor=none;align=left;verticalAlign=top;spacingLeft=4;spacingRight=4;overflow=hidden;rotatable=0;points=[[0,0.5],[1,0.5]];portConstraint=eastwest;whiteSpace=wrap;html=1;" vertex="1" parent="dOjnQ6bzSZBaQjQhCeTP-124">
          <mxGeometry y="30" width="262.5" height="26" as="geometry" />
        </mxCell>
        <mxCell id="dOjnQ6bzSZBaQjQhCeTP-126" value="Fail(error: Throwable)" style="text;strokeColor=none;fillColor=none;align=left;verticalAlign=top;spacingLeft=4;spacingRight=4;overflow=hidden;rotatable=0;points=[[0,0.5],[1,0.5]];portConstraint=eastwest;whiteSpace=wrap;html=1;" vertex="1" parent="dOjnQ6bzSZBaQjQhCeTP-124">
          <mxGeometry y="56" width="262.5" height="26" as="geometry" />
        </mxCell>
        <mxCell id="dOjnQ6bzSZBaQjQhCeTP-132" value="MovieAppNetworkApi" style="swimlane;fontStyle=1;align=center;verticalAlign=top;childLayout=stackLayout;horizontal=1;startSize=26;horizontalStack=0;resizeParent=1;resizeParentMax=0;resizeLast=0;collapsible=1;marginBottom=0;whiteSpace=wrap;html=1;" vertex="1" parent="WIyWlLk6GJQsqaUBKTNV-1">
          <mxGeometry x="1592.5" y="570" width="307.5" height="84" as="geometry" />
        </mxCell>
        <mxCell id="dOjnQ6bzSZBaQjQhCeTP-133" value="- networkRequestFactory: NetworkRequestFactory" style="text;strokeColor=none;fillColor=none;align=left;verticalAlign=top;spacingLeft=4;spacingRight=4;overflow=hidden;rotatable=0;points=[[0,0.5],[1,0.5]];portConstraint=eastwest;whiteSpace=wrap;html=1;" vertex="1" parent="dOjnQ6bzSZBaQjQhCeTP-132">
          <mxGeometry y="26" width="307.5" height="24" as="geometry" />
        </mxCell>
        <mxCell id="dOjnQ6bzSZBaQjQhCeTP-134" value="" style="line;strokeWidth=1;fillColor=none;align=left;verticalAlign=middle;spacingTop=-1;spacingLeft=3;spacingRight=3;rotatable=0;labelPosition=right;points=[];portConstraint=eastwest;strokeColor=inherit;" vertex="1" parent="dOjnQ6bzSZBaQjQhCeTP-132">
          <mxGeometry y="50" width="307.5" height="8" as="geometry" />
        </mxCell>
        <mxCell id="dOjnQ6bzSZBaQjQhCeTP-135" value="+ getMovies(): ApiResult&amp;lt;List&amp;lt;MovieResponse&amp;gt;&amp;gt;" style="text;strokeColor=none;fillColor=none;align=left;verticalAlign=top;spacingLeft=4;spacingRight=4;overflow=hidden;rotatable=0;points=[[0,0.5],[1,0.5]];portConstraint=eastwest;whiteSpace=wrap;html=1;" vertex="1" parent="dOjnQ6bzSZBaQjQhCeTP-132">
          <mxGeometry y="58" width="307.5" height="26" as="geometry" />
        </mxCell>
        <mxCell id="dOjnQ6bzSZBaQjQhCeTP-136" value="Extends" style="endArrow=block;endSize=16;endFill=0;html=1;rounded=0;exitX=0.52;exitY=0.005;exitDx=0;exitDy=0;exitPerimeter=0;entryX=0.505;entryY=1.022;entryDx=0;entryDy=0;entryPerimeter=0;" edge="1" parent="WIyWlLk6GJQsqaUBKTNV-1" source="dOjnQ6bzSZBaQjQhCeTP-132" target="dOjnQ6bzSZBaQjQhCeTP-95">
          <mxGeometry width="160" relative="1" as="geometry">
            <mxPoint x="1810" y="500" as="sourcePoint" />
            <mxPoint x="1970" y="500" as="targetPoint" />
          </mxGeometry>
        </mxCell>
        <mxCell id="dOjnQ6bzSZBaQjQhCeTP-137" value="Use" style="endArrow=open;endSize=12;dashed=1;html=1;rounded=0;exitX=1.001;exitY=0.184;exitDx=0;exitDy=0;exitPerimeter=0;entryX=-0.008;entryY=0.171;entryDx=0;entryDy=0;entryPerimeter=0;" edge="1" parent="WIyWlLk6GJQsqaUBKTNV-1" source="dOjnQ6bzSZBaQjQhCeTP-132" target="dOjnQ6bzSZBaQjQhCeTP-138">
          <mxGeometry width="160" relative="1" as="geometry">
            <mxPoint x="1890" y="595" as="sourcePoint" />
            <mxPoint x="2020" y="590" as="targetPoint" />
          </mxGeometry>
        </mxCell>
        <mxCell id="dOjnQ6bzSZBaQjQhCeTP-138" value="«interface»&lt;br style=&quot;border-color: var(--border-color);&quot;&gt;&lt;b style=&quot;border-color: var(--border-color);&quot;&gt;NetworkRequestFactory&lt;/b&gt;" style="swimlane;fontStyle=0;childLayout=stackLayout;horizontal=1;startSize=34;fillColor=none;horizontalStack=0;resizeParent=1;resizeParentMax=0;resizeLast=0;collapsible=1;marginBottom=0;whiteSpace=wrap;html=1;" vertex="1" parent="WIyWlLk6GJQsqaUBKTNV-1">
          <mxGeometry x="2040" y="570" width="290" height="120" as="geometry" />
        </mxCell>
        <mxCell id="dOjnQ6bzSZBaQjQhCeTP-139" value="+ &amp;lt;T&amp;gt; create(&lt;br&gt;&lt;span style=&quot;white-space: pre;&quot;&gt;	&lt;/span&gt;url: String,&lt;br&gt;&lt;span style=&quot;white-space: pre;&quot;&gt;	&lt;/span&gt;requestInfo: NetworkRequestInfo,&lt;br&gt;&lt;span style=&quot;white-space: pre;&quot;&gt;	&lt;/span&gt;type: Type&lt;br&gt;): ApiResult&amp;lt;T&amp;gt;" style="text;strokeColor=none;fillColor=none;align=left;verticalAlign=top;spacingLeft=4;spacingRight=4;overflow=hidden;rotatable=0;points=[[0,0.5],[1,0.5]];portConstraint=eastwest;whiteSpace=wrap;html=1;" vertex="1" parent="dOjnQ6bzSZBaQjQhCeTP-138">
          <mxGeometry y="34" width="290" height="86" as="geometry" />
        </mxCell>
      </root>
    </mxGraphModel>
  </diagram>
</mxfile>
